<svg width="135" height="32" viewBox="0 0 135 32" fill="none" xmlns="http://www.w3.org/2000/svg">
<path d="M15.7199 31.5051C17.6073 31.5051 19.4575 31.1523 21.2704 30.4467C23.0833 29.7411 24.6851 28.8339 26.0759 27.7251L24.2878 25.1547C23.1454 26.1123 21.8416 26.8935 20.3763 27.4983C18.9111 28.1031 17.3838 28.4055 15.7944 28.4055C13.4103 28.4055 11.2993 27.8259 9.46158 26.6667C7.62383 25.5075 6.19585 23.9703 5.17764 22.0551C5.07581 21.8636 4.97908 21.6706 4.88744 21.476L4.7989 21.2823L29.652 11.5467C28.6835 8.45791 27.1475 5.91232 25.044 3.90995L24.5485 3.45751C22.1892 1.39111 19.2712 0.35791 15.7944 0.35791C12.9136 0.35791 10.2935 1.06351 7.93425 2.47471C5.57497 3.88591 3.69998 5.77591 2.30925 8.14471C0.918517 10.5135 0.223145 13.1343 0.223145 16.0071C0.223145 18.9303 0.881263 21.5637 2.19749 23.9073C3.51372 26.2509 5.33905 28.1031 7.67349 29.4639C10.0079 30.8247 12.6901 31.5051 15.7199 31.5051ZM3.9359 18.6363L3.89467 18.4445C3.73176 17.6058 3.6503 16.743 3.6503 15.8559C3.6503 13.4871 4.18425 11.3703 5.25213 9.50551C6.32001 7.64071 7.74799 6.15391 9.53608 5.04511C11.3242 3.93631 13.3358 3.38191 15.5709 3.38191C18.0543 3.38191 20.1528 4.11271 21.8664 5.57431C23.58 7.03591 24.859 8.77471 25.7033 10.7907L25.4115 10.1418L3.9359 18.6363ZM51.407 31.5051C53.0461 31.5051 54.5983 31.2657 56.0635 30.7869C57.5287 30.3081 58.8698 29.6529 60.0867 28.8213C61.3036 27.9897 62.3342 27.0825 63.1786 26.0997C63.5404 25.6785 63.8567 25.255 64.1274 24.8292L64.2216 24.6696V30.9003H67.7233V1.34071H64.5942L64.2506 7.78771L64.1171 7.52311C63.2076 5.84731 61.9278 4.39831 60.2779 3.17611L59.7142 2.77711C57.4046 1.21471 54.9584 0.433509 52.3756 0.433509C49.3458 0.433509 46.6388 1.05091 44.2547 2.28571C41.8706 3.52051 39.9832 5.30971 38.5924 7.65331C37.2017 9.99691 36.5063 12.8067 36.5063 16.0827C36.5063 19.1571 37.1644 21.8535 38.4807 24.1719C39.7969 26.4903 41.585 28.2921 43.8449 29.5773C46.1049 30.8625 48.6256 31.5051 51.407 31.5051ZM52.1521 28.4811C49.9666 28.4811 47.9426 27.9141 46.08 26.7801C44.2174 25.6461 42.7398 24.1341 41.6471 22.2441C40.5544 20.3541 40.008 18.2499 40.008 15.9315C40.008 13.4115 40.5544 11.2191 41.6471 9.35431C42.7398 7.48951 44.205 6.04051 46.0428 5.00731C47.8805 3.97411 49.8921 3.45751 52.0776 3.45751C54.0643 3.45751 55.9021 3.88591 57.5908 4.74271C59.2796 5.59951 60.7075 6.75871 61.8748 8.22031C63.042 9.68191 63.8243 11.3451 64.2216 13.2099V17.4435C64.0726 19.6107 63.4518 21.5259 62.359 23.1891C61.2663 24.8523 59.8383 26.1501 58.0751 27.0825C56.3118 28.0149 54.3375 28.4811 52.1521 28.4811ZM87.8392 31.5051C90.0743 31.5051 91.9245 31.1145 93.3897 30.3333C94.855 29.5521 95.9601 28.4685 96.7051 27.0825C97.4502 25.6965 97.8227 24.1467 97.8227 22.4331C97.8227 20.7195 97.4129 19.3461 96.5934 18.3129C95.7738 17.2797 94.7308 16.4481 93.4642 15.8181C92.1977 15.1881 90.8442 14.6463 89.4038 14.1927C88.3111 13.7895 87.2556 13.3611 86.2374 12.9075C85.2192 12.4539 84.3872 11.8617 83.7415 11.1309C83.0958 10.4001 82.773 9.45511 82.773 8.29591C82.773 7.18711 83.0834 6.29251 83.7043 5.61211C84.3252 4.93171 85.095 4.41511 86.0139 4.06231C86.9328 3.70951 87.8144 3.53311 88.6588 3.53311C89.6521 3.58351 90.8069 3.81031 92.1232 4.21351C93.4394 4.61671 94.4949 5.37271 95.2896 6.48151L96.8541 3.98671C95.6124 2.77711 94.2341 1.92031 92.7192 1.41631C91.2043 0.91231 89.677 0.66031 88.1372 0.66031C86.4485 0.66031 84.9336 1.00051 83.5925 1.68091C82.2515 2.36131 81.196 3.30631 80.4261 4.51591C79.6562 5.72551 79.2713 7.13671 79.2713 8.74951C79.2713 10.9671 79.9543 12.6807 81.3202 13.8903C82.6861 15.0999 84.4369 16.0575 86.5727 16.7631C87.8641 17.1663 89.0934 17.6073 90.2606 18.0861C91.4278 18.5649 92.3964 19.1823 93.1662 19.9383C93.9361 20.6943 94.321 21.7779 94.321 23.1891C94.321 24.5499 93.9982 25.6335 93.3525 26.4399C92.7068 27.2463 91.8748 27.8133 90.8566 28.1409C89.8384 28.4685 88.7581 28.6323 87.6157 28.6323C86.076 28.6323 84.6232 28.3173 83.2573 27.6873C81.8914 27.0573 80.7117 26.2131 79.7183 25.1547L78.0793 27.4983C79.2217 28.9095 80.7117 29.9301 82.5495 30.5601C84.3872 31.1901 86.1505 31.5051 87.8392 31.5051ZM121.068 31.5051C122.955 31.5051 124.805 31.1523 126.618 30.4467C128.431 29.7411 130.033 28.8339 131.424 27.7251L129.636 25.1547C128.493 26.1123 127.189 26.8935 125.724 27.4983C124.259 28.1031 122.732 28.4055 121.142 28.4055C118.758 28.4055 116.647 27.8259 114.809 26.6667C112.972 25.5075 111.544 23.9703 110.526 22.0551C110.424 21.8636 110.327 21.6706 110.235 21.476L110.147 21.2823L135 11.5467C134.031 8.45791 132.495 5.91232 130.392 3.90995L129.896 3.45751C127.537 1.39111 124.619 0.35791 121.142 0.35791C118.261 0.35791 115.641 1.06351 113.282 2.47471C110.923 3.88591 109.048 5.77591 107.657 8.14471C106.266 10.5135 105.571 13.1343 105.571 16.0071C105.571 18.9303 106.229 21.5637 107.545 23.9073C108.862 26.2509 110.687 28.1031 113.021 29.4639C115.356 30.8247 118.038 31.5051 121.068 31.5051ZM109.284 18.6384L109.243 18.4445C109.08 17.6058 108.998 16.743 108.998 15.8559C108.998 13.4871 109.532 11.3703 110.6 9.50551C111.668 7.64071 113.096 6.15391 114.884 5.04511C116.672 3.93631 118.684 3.38191 120.919 3.38191C123.402 3.38191 125.501 4.11271 127.214 5.57431C128.928 7.03591 130.207 8.77471 131.051 10.7907L130.759 10.1418L109.284 18.6384Z" fill="white"/>
</svg>
