<svg width="536" height="150" viewBox="0 0 536 150" fill="none" xmlns="http://www.w3.org/2000/svg">
<path d="M177.484 0.000244141H73.9516C33.1093 0.000244141 0 33.5789 0 75.0002C0 116.422 33.1093 150 73.9516 150H177.484C218.326 150 251.435 116.422 251.435 75.0002C251.435 33.5789 218.326 0.000244141 177.484 0.000244141Z" fill="#9FA1A4"/>
<path d="M322.886 109.831C326.259 109.831 329.564 109.201 332.803 107.941C336.042 106.681 338.904 105.061 341.389 103.081L338.194 98.4907C336.153 100.201 333.824 101.596 331.206 102.676C328.588 103.756 325.859 104.296 323.02 104.296C318.76 104.296 314.988 103.261 311.705 101.191C308.422 99.1207 305.87 96.3757 304.051 92.9557C303.869 92.6137 303.696 92.269 303.533 91.9216L303.374 91.5757L347.779 74.1907C346.048 68.675 343.304 64.1293 339.546 60.5536L338.66 59.7457C334.445 56.0557 329.231 54.2107 323.02 54.2107C317.873 54.2107 313.191 55.4707 308.976 57.9907C304.761 60.5107 301.411 63.8857 298.926 68.1157C296.441 72.3457 295.199 77.0257 295.199 82.1557C295.199 87.3757 296.375 92.0782 298.726 96.2632C301.078 100.448 304.339 103.756 308.51 106.186C312.681 108.616 317.473 109.831 322.886 109.831ZM301.832 86.8507L301.759 86.5081C301.468 85.0105 301.322 83.4697 301.322 81.8857C301.322 77.6557 302.276 73.8757 304.184 70.5457C306.092 67.2157 308.643 64.5607 311.838 62.5807C315.033 60.6007 318.627 59.6107 322.62 59.6107C327.057 59.6107 330.807 60.9157 333.868 63.5257C336.93 66.1357 339.215 69.2407 340.724 72.8407L340.202 71.6819L301.832 86.8507ZM386.647 109.831C389.576 109.831 392.349 109.403 394.967 108.548C397.585 107.693 399.981 106.523 402.155 105.038C404.329 103.553 406.171 101.933 407.679 100.178C408.326 99.426 408.891 98.6698 409.374 97.9094L409.543 97.6244V108.751H415.799V55.9657H410.208L409.595 67.4782L409.356 67.0057C407.731 64.0132 405.445 61.4257 402.497 59.2432L401.49 58.5307C397.363 55.7407 392.993 54.3457 388.378 54.3457C382.965 54.3457 378.128 55.4482 373.869 57.6532C369.609 59.8582 366.237 63.0532 363.752 67.2382C361.267 71.4232 360.025 76.4407 360.025 82.2907C360.025 87.7807 361.201 92.5957 363.552 96.7357C365.904 100.876 369.099 104.093 373.137 106.388C377.174 108.683 381.678 109.831 386.647 109.831ZM387.979 104.431C384.074 104.431 380.458 103.418 377.13 101.393C373.802 99.3682 371.162 96.6682 369.21 93.2932C367.257 89.9182 366.281 86.1607 366.281 82.0207C366.281 77.5207 367.257 73.6057 369.21 70.2757C371.162 66.9457 373.78 64.3582 377.063 62.5132C380.347 60.6682 383.941 59.7457 387.845 59.7457C391.395 59.7457 394.679 60.5107 397.696 62.0407C400.713 63.5707 403.264 65.6407 405.35 68.2507C407.435 70.8607 408.833 73.8307 409.543 77.1607V84.7207C409.277 88.5907 408.167 92.0107 406.215 94.9807C404.263 97.9507 401.711 100.268 398.561 101.933C395.411 103.598 391.883 104.431 387.979 104.431ZM451.74 109.831C455.733 109.831 459.039 109.133 461.657 107.738C464.274 106.343 466.249 104.408 467.58 101.933C468.911 99.4582 469.577 96.6907 469.577 93.6307C469.577 90.5707 468.845 88.1182 467.38 86.2732C465.916 84.4282 464.053 82.9432 461.79 81.8182C459.527 80.6932 457.109 79.7257 454.535 78.9157C452.583 78.1957 450.697 77.4307 448.878 76.6207C447.059 75.8107 445.572 74.7532 444.418 73.4482C443.265 72.1432 442.688 70.4557 442.688 68.3857C442.688 66.4057 443.243 64.8082 444.352 63.5932C445.461 62.3782 446.837 61.4557 448.478 60.8257C450.12 60.1957 451.695 59.8807 453.204 59.8807C454.979 59.9707 457.042 60.3757 459.394 61.0957C461.745 61.8157 463.631 63.1657 465.051 65.1457L467.846 60.6907C465.628 58.5307 463.165 57.0007 460.459 56.1007C457.752 55.2007 455.023 54.7507 452.272 54.7507C449.255 54.7507 446.548 55.3582 444.152 56.5732C441.756 57.7882 439.87 59.4757 438.495 61.6357C437.119 63.7957 436.432 66.3157 436.432 69.1957C436.432 73.1557 437.652 76.2157 440.092 78.3757C442.533 80.5357 445.661 82.2457 449.477 83.5057C451.784 84.2257 453.98 85.0132 456.066 85.8682C458.151 86.7232 459.882 87.8257 461.257 89.1757C462.633 90.5257 463.32 92.4607 463.32 94.9807C463.32 97.4107 462.744 99.3457 461.59 100.786C460.436 102.226 458.95 103.238 457.131 103.823C455.312 104.408 453.381 104.701 451.34 104.701C448.589 104.701 445.994 104.138 443.553 103.013C441.113 101.888 439.005 100.381 437.23 98.4907L434.302 102.676C436.343 105.196 439.005 107.018 442.289 108.143C445.572 109.268 448.722 109.831 451.74 109.831ZM511.108 109.831C514.48 109.831 517.786 109.201 521.025 107.941C524.264 106.681 527.126 105.061 529.611 103.081L526.416 98.4907C524.375 100.201 522.045 101.596 519.428 102.676C516.81 103.756 514.081 104.296 511.241 104.296C506.982 104.296 503.21 103.261 499.926 101.191C496.643 99.1207 494.092 96.3757 492.273 92.9557C492.091 92.6137 491.918 92.269 491.754 91.9216L491.596 91.5757L536 74.1907C534.27 68.675 531.525 64.1293 527.767 60.5536L526.882 59.7457C522.667 56.0557 517.453 54.2107 511.241 54.2107C506.094 54.2107 501.413 55.4707 497.198 57.9907C492.982 60.5107 489.632 63.8857 487.148 68.1157C484.663 72.3457 483.421 77.0257 483.421 82.1557C483.421 87.3757 484.596 92.0782 486.948 96.2632C489.3 100.448 492.561 103.756 496.732 106.186C500.903 108.616 505.695 109.831 511.108 109.831ZM490.054 86.8544L489.98 86.5081C489.689 85.0105 489.544 83.4697 489.544 81.8857C489.544 77.6557 490.498 73.8757 492.406 70.5457C494.314 67.2157 496.865 64.5607 500.06 62.5807C503.254 60.6007 506.848 59.6107 510.842 59.6107C515.279 59.6107 519.028 60.9157 522.09 63.5257C525.151 66.1357 527.436 69.2407 528.945 72.8407L528.424 71.6819L490.054 86.8544Z" fill="white"/>
<g filter="url(#filter0_d)">
<path d="M177.488 142.5C214.246 142.5 244.044 112.279 244.044 75.0003C244.044 37.721 214.246 7.50024 177.488 7.50024C140.729 7.50024 110.931 37.721 110.931 75.0003C110.931 112.279 140.729 142.5 177.488 142.5Z" fill="black"/>
</g>
<path d="M177.488 142.5C214.246 142.5 244.044 112.279 244.044 75.0003C244.044 37.721 214.246 7.50024 177.488 7.50024C140.729 7.50024 110.931 37.721 110.931 75.0003C110.931 112.279 140.729 142.5 177.488 142.5Z" fill="white"/>
<path d="M177.482 123.751C204.03 123.751 225.551 101.925 225.551 75.0007C225.551 48.0769 204.03 26.2507 177.482 26.2507C150.935 26.2507 129.414 48.0769 129.414 75.0007C129.414 101.925 150.935 123.751 177.482 123.751Z" fill="url(#paint0_linear)"/>
<defs>
<filter id="filter0_d" x="105.81" y="2.37862" width="143.356" height="145.243" filterUnits="userSpaceOnUse" color-interpolation-filters="sRGB">
<feFlood flood-opacity="0" result="BackgroundImageFix"/>
<feColorMatrix in="SourceAlpha" type="matrix" values="0 0 0 0 0 0 0 0 0 0 0 0 0 0 0 0 0 0 127 0" result="hardAlpha"/>
<feOffset/>
<feGaussianBlur stdDeviation="2.56081"/>
<feColorMatrix type="matrix" values="0 0 0 0 0 0 0 0 0 0 0 0 0 0 0 0 0 0 1 0"/>
<feBlend mode="normal" in2="BackgroundImageFix" result="effect1_dropShadow"/>
<feBlend mode="normal" in="SourceGraphic" in2="effect1_dropShadow" result="shape"/>
</filter>
<linearGradient id="paint0_linear" x1="129.414" y1="75.0007" x2="225.551" y2="75.0007" gradientUnits="userSpaceOnUse">
<stop stop-color="#012E65"/>
<stop offset="1" stop-color="#0060AD"/>
</linearGradient>
</defs>
</svg>
