<svg width="300" height="84" viewBox="0 0 300 84" fill="none" xmlns="http://www.w3.org/2000/svg">
<path d="M99.338 0H41.3908C18.5313 0 0 18.804 0 42C0 65.196 18.5313 84 41.3908 84H99.338C122.198 84 140.729 65.196 140.729 42C140.729 18.804 122.198 0 99.338 0Z" fill="#9FA1A4"/>
<path d="M180.72 61.5051C182.607 61.5051 184.457 61.1523 186.27 60.4467C188.083 59.7411 189.685 58.8339 191.076 57.7251L189.288 55.1547C188.145 56.1123 186.842 56.8935 185.376 57.4983C183.911 58.1031 182.384 58.4055 180.794 58.4055C178.41 58.4055 176.299 57.8259 174.462 56.6667C172.624 55.5075 171.196 53.9703 170.178 52.0551C170.076 51.8636 169.979 51.6706 169.887 51.476L169.799 51.2823L194.652 41.5467C193.683 38.4579 192.147 35.9123 190.044 33.91L189.549 33.4575C187.189 31.3911 184.271 30.3579 180.794 30.3579C177.914 30.3579 175.294 31.0635 172.934 32.4747C170.575 33.8859 168.7 35.7759 167.309 38.1447C165.919 40.5135 165.223 43.1343 165.223 46.0071C165.223 48.9303 165.881 51.5637 167.197 53.9073C168.514 56.2509 170.339 58.1031 172.673 59.4639C175.008 60.8247 177.69 61.5051 180.72 61.5051ZM168.936 48.6363L168.895 48.4445C168.732 47.6058 168.65 46.743 168.65 45.8559C168.65 43.4871 169.184 41.3703 170.252 39.5055C171.32 37.6407 172.748 36.1539 174.536 35.0451C176.324 33.9363 178.336 33.3819 180.571 33.3819C183.054 33.3819 185.153 34.1127 186.866 35.5743C188.58 37.0359 189.859 38.7747 190.703 40.7907L190.412 40.1418L168.936 48.6363ZM216.407 61.5051C218.046 61.5051 219.598 61.2657 221.063 60.7869C222.529 60.3081 223.87 59.6529 225.087 58.8213C226.304 57.9897 227.334 57.0825 228.179 56.0997C228.54 55.6785 228.857 55.255 229.127 54.8292L229.222 54.6696V60.9003H232.723V31.3407H229.594L229.251 37.7877L229.117 37.5231C228.208 35.8473 226.928 34.3983 225.278 33.1761L224.714 32.7771C222.405 31.2147 219.958 30.4335 217.376 30.4335C214.346 30.4335 211.639 31.0509 209.255 32.2857C206.871 33.5205 204.983 35.3097 203.592 37.6533C202.202 39.9969 201.506 42.8067 201.506 46.0827C201.506 49.1571 202.164 51.8535 203.481 54.1719C204.797 56.4903 206.585 58.2921 208.845 59.5773C211.105 60.8625 213.626 61.5051 216.407 61.5051ZM217.152 58.4811C214.967 58.4811 212.943 57.9141 211.08 56.7801C209.217 55.6461 207.74 54.1341 206.647 52.2441C205.554 50.3541 205.008 48.2499 205.008 45.9315C205.008 43.4115 205.554 41.2191 206.647 39.3543C207.74 37.4895 209.205 36.0405 211.043 35.0073C212.881 33.9741 214.892 33.4575 217.078 33.4575C219.064 33.4575 220.902 33.8859 222.591 34.7427C224.28 35.5995 225.708 36.7587 226.875 38.2203C228.042 39.6819 228.824 41.3451 229.222 43.2099V47.4435C229.073 49.6107 228.452 51.5259 227.359 53.1891C226.266 54.8523 224.838 56.1501 223.075 57.0825C221.312 58.0149 219.338 58.4811 217.152 58.4811ZM252.839 61.5051C255.074 61.5051 256.924 61.1145 258.39 60.3333C259.855 59.5521 260.96 58.4685 261.705 57.0825C262.45 55.6965 262.823 54.1467 262.823 52.4331C262.823 50.7195 262.413 49.3461 261.593 48.3129C260.774 47.2797 259.731 46.4481 258.464 45.8181C257.198 45.1881 255.844 44.6463 254.404 44.1927C253.311 43.7895 252.256 43.3611 251.237 42.9075C250.219 42.4539 249.387 41.8617 248.742 41.1309C248.096 40.4001 247.773 39.4551 247.773 38.2959C247.773 37.1871 248.083 36.2925 248.704 35.6121C249.325 34.9317 250.095 34.4151 251.014 34.0623C251.933 33.7095 252.814 33.5331 253.659 33.5331C254.652 33.5835 255.807 33.8103 257.123 34.2135C258.439 34.6167 259.495 35.3727 260.29 36.4815L261.854 33.9867C260.612 32.7771 259.234 31.9203 257.719 31.4163C256.204 30.9123 254.677 30.6603 253.137 30.6603C251.448 30.6603 249.934 31.0005 248.593 31.6809C247.251 32.3613 246.196 33.3063 245.426 34.5159C244.656 35.7255 244.271 37.1367 244.271 38.7495C244.271 40.9671 244.954 42.6807 246.32 43.8903C247.686 45.0999 249.437 46.0575 251.573 46.7631C252.864 47.1663 254.093 47.6073 255.261 48.0861C256.428 48.5649 257.396 49.1823 258.166 49.9383C258.936 50.6943 259.321 51.7779 259.321 53.1891C259.321 54.5499 258.998 55.6335 258.352 56.4399C257.707 57.2463 256.875 57.8133 255.857 58.1409C254.838 58.4685 253.758 58.6323 252.616 58.6323C251.076 58.6323 249.623 58.3173 248.257 57.6873C246.891 57.0573 245.712 56.2131 244.718 55.1547L243.079 57.4983C244.222 58.9095 245.712 59.9301 247.549 60.5601C249.387 61.1901 251.15 61.5051 252.839 61.5051ZM286.068 61.5051C287.955 61.5051 289.805 61.1523 291.618 60.4467C293.431 59.7411 295.033 58.8339 296.424 57.7251L294.636 55.1547C293.493 56.1123 292.189 56.8935 290.724 57.4983C289.259 58.1031 287.732 58.4055 286.142 58.4055C283.758 58.4055 281.647 57.8259 279.809 56.6667C277.972 55.5075 276.544 53.9703 275.526 52.0551C275.424 51.8636 275.327 51.6706 275.235 51.476L275.147 51.2823L300 41.5467C299.031 38.4579 297.495 35.9123 295.392 33.91L294.896 33.4575C292.537 31.3911 289.619 30.3579 286.142 30.3579C283.261 30.3579 280.641 31.0635 278.282 32.4747C275.923 33.8859 274.048 35.7759 272.657 38.1447C271.266 40.5135 270.571 43.1343 270.571 46.0071C270.571 48.9303 271.229 51.5637 272.545 53.9073C273.862 56.2509 275.687 58.1031 278.021 59.4639C280.356 60.8247 283.038 61.5051 286.068 61.5051ZM274.284 48.6384L274.243 48.4445C274.08 47.6058 273.998 46.743 273.998 45.8559C273.998 43.4871 274.532 41.3703 275.6 39.5055C276.668 37.6407 278.096 36.1539 279.884 35.0451C281.672 33.9363 283.684 33.3819 285.919 33.3819C288.402 33.3819 290.501 34.1127 292.214 35.5743C293.928 37.0359 295.207 38.7747 296.051 40.7907L295.759 40.1418L274.284 48.6384Z" fill="white"/>
<g filter="url(#filter0_d)">
<path d="M99.3401 79.8C119.914 79.8 136.592 62.8763 136.592 42C136.592 21.1236 119.914 4.19995 99.3401 4.19995C78.7666 4.19995 62.0884 21.1236 62.0884 42C62.0884 62.8763 78.7666 79.8 99.3401 79.8Z" fill="black"/>
</g>
<path d="M99.3401 79.8C119.914 79.8 136.592 62.8763 136.592 42C136.592 21.1236 119.914 4.19995 99.3401 4.19995C78.7666 4.19995 62.0884 21.1236 62.0884 42C62.0884 62.8763 78.7666 79.8 99.3401 79.8Z" fill="white"/>
<path d="M99.3371 69.3002C114.196 69.3002 126.241 57.0776 126.241 42.0002C126.241 26.9228 114.196 14.7002 99.3371 14.7002C84.4785 14.7002 72.4331 26.9228 72.4331 42.0002C72.4331 57.0776 84.4785 69.3002 99.3371 69.3002Z" fill="url(#paint0_linear)"/>
<defs>
<filter id="filter0_d" x="59.481" y="1.59258" width="79.7182" height="80.8148" filterUnits="userSpaceOnUse" color-interpolation-filters="sRGB">
<feFlood flood-opacity="0" result="BackgroundImageFix"/>
<feColorMatrix in="SourceAlpha" type="matrix" values="0 0 0 0 0 0 0 0 0 0 0 0 0 0 0 0 0 0 127 0" result="hardAlpha"/>
<feOffset/>
<feGaussianBlur stdDeviation="1.30369"/>
<feColorMatrix type="matrix" values="0 0 0 0 0 0 0 0 0 0 0 0 0 0 0 0 0 0 1 0"/>
<feBlend mode="normal" in2="BackgroundImageFix" result="effect1_dropShadow"/>
<feBlend mode="normal" in="SourceGraphic" in2="effect1_dropShadow" result="shape"/>
</filter>
<linearGradient id="paint0_linear" x1="72.4331" y1="42.0002" x2="126.241" y2="42.0002" gradientUnits="userSpaceOnUse">
<stop stop-color="#012E65"/>
<stop offset="1" stop-color="#0060AD"/>
</linearGradient>
</defs>
</svg>
