<svg width="450" height="83" viewBox="0 0 450 83" fill="none" xmlns="http://www.w3.org/2000/svg">
<path d="M117.199 25.2964H102.04V58.6376H111.954V49.695L117.199 49.6503C121.519 49.6503 124.87 48.5622 127.234 46.3713C129.599 44.1803 130.782 41.11 130.782 37.1455C130.782 33.3746 129.599 30.4534 127.234 28.3966C124.87 26.3398 121.519 25.2964 117.199 25.2964ZM116.729 42.0341H111.969V32.8977H116.729C118.215 32.8977 119.367 33.2852 120.185 34.0602C120.989 34.8353 121.398 35.9531 121.398 37.4137C121.398 38.9042 120.989 40.0518 120.185 40.8417C119.382 41.6317 118.215 42.0341 116.729 42.0341ZM153.99 24.6705C150.731 24.6258 147.517 25.3859 144.652 26.9061C141.954 28.3369 139.695 30.4683 138.149 33.0616C136.557 35.7295 135.739 38.7849 135.784 41.8851C135.739 45.015 136.557 48.1002 138.149 50.7979C139.695 53.4211 141.954 55.5822 144.652 57.0279C147.517 58.5631 150.731 59.3381 153.99 59.2934C157.234 59.3381 160.448 58.5631 163.313 57.0279C166.026 55.5822 168.285 53.4211 169.846 50.7979C171.438 48.0853 172.257 45.0001 172.211 41.8851C172.257 38.7849 171.438 35.7444 169.846 33.0616C168.285 30.4534 166.026 28.322 163.313 26.9061C160.448 25.4008 157.234 24.6258 153.99 24.6705ZM154.126 32.8977C155.551 32.8828 156.946 33.3001 158.128 34.0901C159.356 34.9098 160.342 36.0276 160.993 37.3541C161.706 38.7849 162.07 40.3499 162.039 41.9447C162.07 43.5544 161.706 45.1342 160.993 46.5799C160.342 47.9064 159.341 49.0392 158.113 49.8589C156.946 50.6488 155.551 51.0811 154.126 51.0662C152.671 51.0662 151.261 50.6488 150.049 49.8589C148.775 49.0243 147.744 47.8915 147.047 46.5501C146.289 45.1193 145.91 43.5394 145.925 41.9298C145.91 40.335 146.289 38.7551 147.047 37.3392C147.744 36.0127 148.775 34.8949 150.049 34.0751C151.261 33.315 152.686 32.8977 154.126 32.8977ZM213.853 48.4132L207.85 25.2964H198.178L192.221 48.4579L186.218 25.2964H175.637L186.84 58.6376H196.996L202.817 37.2796L208.441 58.6376H218.613L229.906 25.2964H219.75L213.853 48.4132ZM235.242 58.6376H263.029V51.0215H245.156V45.7453H260.937V38.1291H245.156V32.8977H262.559V25.2815H235.242V58.6376ZM301.715 58.6376L294.954 47.7425C296.727 46.7439 298.167 45.2684 299.122 43.4798C300.138 41.5124 300.638 39.3364 300.578 37.1306C300.578 33.3597 299.35 30.4385 296.879 28.3817C294.423 26.3249 290.952 25.2964 286.465 25.2815H270.881V58.6227H280.795V49.6353H286.04L290.467 58.6227L301.715 58.6376ZM280.795 32.8977H286.465C287.95 32.8977 289.102 33.2852 289.921 34.0602C290.739 34.8353 291.134 35.9531 291.134 37.4137C291.134 38.9042 290.724 40.0518 289.921 40.8417C289.117 41.6317 287.965 42.0341 286.465 42.0341H280.795V32.8977ZM332.442 37.4137L338.157 30.6173C336.398 28.7543 334.246 27.2787 331.866 26.295C326.5 23.9402 320.315 24.1637 315.13 26.9061C312.447 28.3369 310.234 30.4683 308.703 33.0616C307.126 35.7295 306.323 38.7551 306.368 41.8403C306.323 44.9703 307.111 48.0555 308.657 50.783C310.143 53.4062 312.326 55.5673 314.979 57.0428C320.102 59.8747 326.318 60.0535 331.608 57.5496C334.094 56.4318 336.323 54.8221 338.157 52.8398L332.442 46.7588C331.335 47.9362 330.016 48.905 328.561 49.6055C327.303 50.2613 325.908 50.619 324.483 50.6488C323.043 50.6638 321.633 50.2613 320.436 49.4863C319.208 48.6964 318.223 47.5934 317.571 46.2968C316.858 44.8808 316.495 43.3308 316.525 41.7509C316.495 40.1711 316.858 38.621 317.571 37.2051C318.223 35.9233 319.208 34.8204 320.436 34.0453C321.649 33.2852 323.058 32.8828 324.483 32.8977C325.969 32.9275 327.424 33.3448 328.698 34.105C330.168 34.9396 331.441 36.0723 332.442 37.4137ZM358.47 24.6705C355.211 24.6258 351.997 25.3859 349.132 26.9061C346.434 28.3369 344.175 30.4683 342.629 33.0616C341.037 35.7295 340.218 38.7849 340.264 41.8851C340.218 45.015 341.037 48.1002 342.629 50.7979C344.175 53.4211 346.434 55.5822 349.132 57.0279C354.968 60.0386 361.941 60.0386 367.793 57.0279C370.506 55.5822 372.765 53.4211 374.326 50.7979C375.918 48.0853 376.737 45.0001 376.691 41.8851C376.737 38.7849 375.918 35.7444 374.326 33.0616C372.765 30.4534 370.506 28.322 367.793 26.9061C364.928 25.4008 361.714 24.6258 358.47 24.6705ZM358.606 32.8977C360.031 32.8828 361.426 33.3001 362.608 34.0901C363.836 34.9098 364.822 36.0276 365.473 37.3541C366.186 38.7849 366.55 40.3499 366.519 41.9447C366.55 43.5544 366.186 45.1342 365.473 46.5799C364.822 47.9064 363.821 49.0392 362.593 49.8589C361.426 50.6488 360.031 51.0811 358.621 51.0662C357.166 51.0662 355.756 50.6488 354.544 49.8589C353.27 49.0243 352.24 47.8915 351.542 46.5501C350.784 45.1193 350.405 43.5394 350.42 41.9298C350.405 40.335 350.784 38.7551 351.542 37.3392C352.24 36.0127 353.27 34.8949 354.544 34.0751C355.741 33.315 357.166 32.8977 358.606 32.8977ZM397.701 25.2964H383.073V58.6376H397.368C400.991 58.6376 404.19 57.952 406.948 56.5659C409.632 55.2692 411.86 53.2273 413.376 50.6936C414.937 48.0406 415.725 45.015 415.665 41.9447C415.725 38.8893 414.952 35.8786 413.421 33.2107C411.936 30.7068 409.738 28.6648 407.1 27.3682C404.387 25.9821 401.249 25.2964 397.701 25.2964ZM397.974 50.8724H392.972V33.0915H397.504C399.718 33.0169 401.855 33.9261 403.325 35.5656C404.811 37.22 405.569 39.3662 405.569 42.0341C405.569 44.702 404.872 46.8333 403.477 48.4579C402.113 50.0527 400.096 50.9469 397.974 50.8724ZM422.214 58.6376H450V51.0215H432.128V45.7453H447.908V38.1291H432.128V32.8977H449.53V25.2815H422.229V58.6376H422.214Z" fill="url(#paint0_linear)"/>
<path d="M37.4451 36.4869L37.0199 40.4755H37.933C38.6022 40.4755 39.0622 40.3385 39.3201 40.0506C39.578 39.7628 39.7453 39.2557 39.822 38.5155C39.8429 38.2414 39.8708 37.9878 39.8708 37.7753C39.8708 37.6383 39.8708 37.5081 39.8568 37.3916C39.8359 37.09 39.6895 36.8639 39.4665 36.7131C39.2295 36.5623 38.867 36.4801 38.3721 36.4801L37.4451 36.4869ZM59.7711 41.5378C59.569 41.3733 59.3808 41.2294 59.1856 41.0649C59.3877 41.2294 59.5829 41.387 59.7711 41.5378C70.373 33.1425 76.2212 25.0077 73.7746 20.8341C72.9521 19.4291 71.2652 18.593 68.9092 18.2846C69.0487 18.8603 69.1323 19.4703 69.1323 20.0939C69.1323 20.8204 69.0277 21.5125 68.8396 22.1842C69.216 22.4514 69.5087 22.7598 69.7178 23.1299C71.6068 26.3715 66.6578 32.9232 57.7288 39.9547C57.1781 39.5298 56.5996 39.1117 56.028 38.6868C55.568 35.7125 54.4109 32.9644 52.7102 30.6137C52.6892 31.6965 52.6056 33.6017 52.285 36.0552C52.1804 36.9118 52.041 37.8165 51.8598 38.8033C51.5182 40.7428 51.0373 42.9085 50.3821 45.2249C50.1939 45.8691 50.0057 46.527 49.7826 47.1849C49.7826 47.1849 49.7965 46.9313 49.8035 46.479C49.8175 46.1775 49.8244 45.8759 49.8384 45.5812C49.8732 44.2311 49.8941 42.8673 49.8941 41.4898C49.8941 40.126 49.8732 38.7691 49.8384 37.4395C49.8035 36.4047 49.7687 35.3836 49.7059 34.3693C49.5665 31.7719 49.3574 29.2567 49.0716 26.8512C49.0716 26.8512 49.0159 26.3235 48.981 26.0563C48.9322 25.6382 48.8765 25.2407 48.8137 24.8364L52.6265 23.5C53.8463 25.6451 56.0768 27.1665 58.6907 27.4201C58.9626 27.4406 59.2274 27.468 59.4993 27.468C63.2424 27.468 66.3651 24.9049 67.1736 21.4714C67.3061 20.9095 67.3758 20.3269 67.3758 19.7307C67.3758 19.203 67.32 18.6684 67.2085 18.1613C66.6439 15.4611 64.6504 13.2681 62.0365 12.4045C61.2419 12.1373 60.3845 11.9865 59.4993 11.9865C55.1498 11.9865 51.6297 15.4474 51.6297 19.7238C51.6297 20.2104 51.6785 20.6696 51.7622 21.1288C50.6818 21.4851 49.5665 21.8758 48.4443 22.3075C46.3183 9.04644 42.0525 0.00012207 37.1384 0.00012207C32.2382 0.00012207 27.9793 9.01903 25.8394 22.239C13.1325 17.428 3.06032 16.5302 0.60676 20.7039C-1.85378 24.8775 3.95253 33.0192 14.5196 41.4624C14.5684 41.4967 14.6102 41.5309 14.652 41.5652C14.6032 41.5309 14.5614 41.4967 14.5196 41.4624C3.95253 49.8577 -1.88863 57.9719 0.550997 62.1593C3.00456 66.3466 13.1046 65.4831 25.8534 60.6927C26.4249 60.4734 27.0035 60.2541 27.589 60.0211C27.0035 60.2541 26.4249 60.4802 25.8534 60.6927C27.9793 73.9538 32.2452 83.0001 37.1593 83.0001C42.0595 83.0001 46.3183 73.9812 48.4582 60.7612C61.1652 65.5722 71.2304 66.47 73.6909 62.3101C76.1514 58.1227 70.3451 49.981 59.7711 41.5378ZM56.502 21.259L56.8505 17.9009C56.9063 17.38 57.0039 16.9346 57.1294 16.5508C57.2618 16.167 57.443 15.838 57.694 15.5502C57.9379 15.2624 58.2586 15.0431 58.6419 14.906C59.0323 14.7552 59.4853 14.6867 60.0151 14.6867C60.5169 14.6867 60.9421 14.7552 61.2837 14.8854C61.6252 15.0156 61.8831 15.1938 62.0713 15.4474C62.2456 15.701 62.3641 15.9751 62.4199 16.3041C62.4547 16.4754 62.4686 16.6741 62.4547 16.8934C62.4547 17.0648 62.4408 17.2498 62.4338 17.4485L62.3432 18.2778H60.4682L60.5588 17.4006C60.5727 17.2841 60.5797 17.2018 60.5797 17.1676C60.5797 17.1333 60.5936 17.0648 60.5936 16.962C60.5936 16.8592 60.6076 16.7906 60.5936 16.7564C60.5936 16.7221 60.5797 16.6536 60.5727 16.5713C60.5588 16.4891 60.5518 16.4343 60.5239 16.4C60.503 16.3657 60.4751 16.3315 60.4403 16.2698C60.4054 16.2218 60.3566 16.1807 60.3078 16.167C60.259 16.1464 60.1893 16.1327 60.1196 16.1122C60.0499 16.0916 59.9663 16.0916 59.8757 16.0916C59.7432 16.0916 59.6317 16.1053 59.5272 16.1396C59.4226 16.1738 59.339 16.2218 59.2693 16.2903C59.1996 16.3589 59.1368 16.4274 59.095 16.5097C59.0462 16.5782 59.0114 16.681 58.9765 16.8112C58.9417 16.9414 58.9207 17.0442 58.9068 17.147C58.8859 17.2498 58.8719 17.3663 58.858 17.5171L58.4119 21.725C58.391 21.8963 58.391 22.0471 58.391 22.1842C58.391 22.4377 58.4258 22.6365 58.4816 22.7872C58.5862 23.0066 58.7953 23.1231 59.1298 23.1231C59.2623 23.1231 59.3738 23.1094 59.4714 23.0751C59.562 23.0408 59.6457 22.9928 59.7154 22.9243C59.7851 22.8558 59.8339 22.7872 59.8826 22.7187C59.9314 22.6502 59.9523 22.5542 59.9872 22.4309C60.0081 22.3007 60.036 22.1979 60.043 22.1088C60.0569 22.0265 60.0639 21.9032 60.0918 21.7387L60.1824 20.8272H62.0574L61.9738 21.6222C61.925 22.0608 61.8413 22.4514 61.7159 22.7872C61.5974 23.1231 61.4231 23.4246 61.1861 23.685C60.963 23.9523 60.6564 24.1579 60.28 24.295C59.9036 24.432 59.4575 24.5006 58.9556 24.5006C58.5304 24.5006 58.161 24.4526 57.8403 24.3498C57.5267 24.247 57.2688 24.1099 57.0806 23.9249C56.8924 23.7399 56.739 23.5068 56.6345 23.2464C56.5299 22.9791 56.4602 22.6844 56.4463 22.3555C56.4463 22.2527 56.4463 22.1499 56.4463 22.0471C56.4672 21.7798 56.4741 21.5262 56.502 21.259ZM4.68442 22.9928C6.58732 19.765 14.8402 20.697 25.4979 24.7678C25.4073 25.4463 25.3236 26.1522 25.24 26.8581C22.9398 28.6674 21.0787 31.0112 19.8171 33.6771C20.7929 33.1494 22.4937 32.279 24.8009 31.3333C25.6094 30.9975 26.4807 30.6617 27.4287 30.319C29.3176 29.6405 31.4645 28.9689 33.8553 28.3727C34.5036 28.2082 35.1658 28.0643 35.8489 27.9135C35.8489 27.9135 36.2741 27.6942 37.2011 27.235C37.3057 27.187 37.4102 27.1322 37.5078 27.0842C37.4033 27.1322 37.2987 27.187 37.2011 27.235C36.288 27.6942 35.3609 28.1671 34.4339 28.6536C33.939 28.9209 33.4511 29.1813 32.9422 29.4486C32.8098 29.5172 32.6843 29.5857 32.5449 29.6679C31.9733 29.9763 31.3948 30.3053 30.8232 30.6274C29.6034 31.3196 28.4185 32.0117 27.2474 32.7176C27.0244 32.8547 26.8013 32.9849 26.5922 33.122C26.404 33.2385 26.2298 33.3413 26.0416 33.4578C25.5815 33.7319 25.1006 34.0335 24.6127 34.3487C22.64 35.6029 20.4723 37.0626 18.3115 38.6183C17.9002 38.9198 17.489 39.2214 17.0916 39.5092C17.0568 39.5298 17.0359 39.5572 17.001 39.5778C16.8686 39.6669 16.7431 39.7765 16.6107 39.8656C7.70955 32.793 2.76757 26.2207 4.68442 22.9928ZM42.5613 37.7411C42.5613 37.9947 42.5474 38.2619 42.5125 38.5498C42.4289 39.2762 42.2686 39.8862 42.0176 40.407C41.7667 40.9279 41.453 41.3322 41.0557 41.62C40.6584 41.9079 40.2262 42.1272 39.7453 42.2574C39.2643 42.3876 38.7137 42.4561 38.1142 42.4561H36.8108L36.1416 48.6515H33.2698L34.7824 34.4995H39.2155C41.4461 34.4995 42.5613 35.5892 42.5613 37.7411ZM39.2643 29.0032C39.5013 28.8867 39.7244 28.7839 39.9544 28.6674C41.704 27.8244 43.4256 27.05 45.0916 26.3372C43.4117 27.05 41.704 27.8244 39.9544 28.6674C39.7244 28.7839 39.5013 28.9004 39.2643 29.0032ZM37.1872 30.038C36.5389 30.3738 35.8837 30.7096 35.2285 31.066C35.8907 30.7165 36.5459 30.3738 37.1872 30.038C37.3614 29.9489 37.5287 29.8667 37.703 29.7707C37.5287 29.8667 37.3684 29.9558 37.1872 30.038ZM26.0555 36.3978C25.5258 36.7337 25.003 37.0763 24.4802 37.4121C24.4105 37.4601 24.3408 37.5012 24.2711 37.5492C24.3408 37.5012 24.4105 37.4601 24.4732 37.4121C25.003 37.0626 25.5188 36.7268 26.0555 36.3978ZM46.0326 59.8086C44.276 70.9178 40.9512 78.4015 37.1663 78.4015C33.3674 78.4015 30.0426 70.8904 28.286 59.7401C28.9203 59.4865 29.5546 59.2192 30.1889 58.9588C29.4361 58.671 28.7252 58.3352 28.0212 57.9651C27.7423 57.8143 27.4705 57.6567 27.1917 57.4922C26.6201 57.7252 26.0555 57.9445 25.4909 58.1638C14.7775 62.2141 6.49671 63.1256 4.60774 59.884C2.71878 56.6424 7.66773 50.0907 16.5968 43.0592C17.1474 43.4773 17.7259 43.9022 18.2975 44.3134C19.0224 49.0764 21.5806 53.2637 25.233 56.149C25.8534 56.6356 26.5086 57.0947 27.1917 57.5128C27.4635 57.6772 27.7423 57.8349 28.0212 57.9856C28.7112 58.3694 29.4431 58.6915 30.1889 58.9794C32.3497 59.8223 34.7057 60.2678 37.1663 60.2678C37.7797 60.2678 38.3652 60.2472 38.9576 60.1855C37.9957 59.6099 36.3647 58.5956 34.3712 57.1084C33.6811 56.5876 32.9422 56.0119 32.1685 55.3814C30.642 54.1273 28.99 52.6469 27.2893 50.9405C26.8223 50.4676 26.3483 49.981 25.8673 49.467C25.8673 49.467 26.3622 49.7754 27.2405 50.2826C27.3311 50.3374 27.4426 50.3991 27.5472 50.4676C28.5997 51.105 29.6801 51.7355 30.7745 52.3591C31.9803 53.0376 33.1792 53.7092 34.3781 54.3397C35.3052 54.8331 36.2322 55.306 37.1454 55.772C38.5394 56.4779 39.9405 57.1427 41.2997 57.7663C42.2128 58.1912 43.1399 58.6093 44.0669 59.0136H44.0809C44.7361 59.2809 45.3913 59.5413 46.0326 59.8086ZM46.3044 25.0351C46.2208 24.432 46.1301 23.8358 46.0465 23.2464C45.4122 23.5 44.7779 23.7673 44.1436 24.0277C43.1817 24.432 42.2058 24.8706 41.223 25.3093C42.2058 24.8569 43.1817 24.432 44.1436 24.0277C41.9828 23.1984 39.6268 22.7393 37.1663 22.7393C34.7266 22.7393 32.4055 23.1916 30.2586 24.0071C29.4849 24.295 28.7461 24.6445 28.0212 25.0351C28.1048 24.4115 28.1954 23.7878 28.293 23.1916C30.0495 12.0824 33.3744 4.59867 37.1593 4.59867C40.9581 4.59867 44.283 12.1099 46.0395 23.2601C46.1371 23.8358 46.2208 24.4252 46.3044 25.0351C46.3253 25.1653 46.3392 25.3024 46.3602 25.4258C46.3392 25.2955 46.3253 25.1585 46.3044 25.0351ZM69.6481 60.0074C67.7452 63.2353 59.4923 62.3032 48.8346 58.2324C48.9252 57.5402 49.0089 56.848 49.0925 56.1421C52.7311 53.2706 55.2752 49.1175 56.0141 44.3888C56.1465 43.6075 56.2162 42.7988 56.2372 41.9764C56.739 42.367 57.2339 42.7508 57.7288 43.1278C66.623 50.2003 71.551 56.7658 69.6481 60.0074Z" fill="url(#paint1_linear)"/>
<defs>
<linearGradient id="paint0_linear" x1="10.4568" y1="-27.6665" x2="486.009" y2="158.536" gradientUnits="userSpaceOnUse">
<stop stop-color="#6C94FB"/>
<stop offset="0.527561" stop-color="#00D8F5"/>
<stop offset="1" stop-color="#0047FF"/>
</linearGradient>
<linearGradient id="paint1_linear" x1="10.4568" y1="-27.6665" x2="486.009" y2="158.536" gradientUnits="userSpaceOnUse">
<stop stop-color="#6C94FB"/>
<stop offset="0.527561" stop-color="#00D8F5"/>
<stop offset="1" stop-color="#0047FF"/>
</linearGradient>
</defs>
</svg>
