<svg width="300" height="78" viewBox="0 0 300 78" fill="none" xmlns="http://www.w3.org/2000/svg">
<path d="M21.2518 77.2932V52.4143H29.1595V40.7523H20.7576V40.6817C20.7576 39.1739 21.0988 38.0548 21.7813 37.3244C22.4639 36.5941 23.3935 36.2289 24.5702 36.2289C25.6528 36.2289 26.8531 36.5352 28.171 37.1477L31.9836 26.0512C30.854 25.4386 29.4419 24.9674 27.7474 24.6376C26.0529 24.3078 24.3113 24.1429 22.5227 24.1429C17.0626 24.1429 12.8264 25.6153 9.81396 28.5603C6.80152 31.5052 5.2953 35.4986 5.2953 40.5403V40.7523H0V52.4143H5.2953V77.2932H21.2518ZM53.6591 78C57.9894 78 61.8609 77.1401 65.2734 75.4202C68.686 73.7004 71.3454 71.3209 73.2517 68.2817C75.158 65.2425 76.1112 61.791 76.1112 57.9273C76.1112 54.0635 75.158 50.612 73.2517 47.5728C71.3454 44.5336 68.686 42.1659 65.2734 40.4696C61.8609 38.7733 57.9894 37.9252 53.6591 37.9252C49.3758 37.9252 45.5278 38.7733 42.1153 40.4696C38.7028 42.1659 36.0316 44.5336 34.1017 47.5728C32.1719 50.612 31.207 54.0635 31.207 57.9273C31.207 61.791 32.1719 65.2425 34.1017 68.2817C36.0316 71.3209 38.7028 73.7004 42.1153 75.4202C45.5278 77.1401 49.3758 78 53.6591 78ZM53.6591 65.5606C51.8234 65.5606 50.3171 64.8891 49.1404 63.5462C47.9637 62.2033 47.3753 60.3303 47.3753 57.9273C47.3753 55.5242 47.9637 53.663 49.1404 52.3436C50.3171 51.0243 51.8234 50.3646 53.6591 50.3646C55.4948 50.3646 57.001 51.0243 58.1777 52.3436C59.3545 53.663 59.9428 55.5242 59.9428 57.9273C59.9428 60.3303 59.3545 62.2033 58.1777 63.5462C57.001 64.8891 55.4948 65.5606 53.6591 65.5606ZM101.529 78C105.859 78 109.73 77.1401 113.143 75.4202C116.555 73.7004 119.215 71.3209 121.121 68.2817C123.028 65.2425 123.981 61.791 123.981 57.9273C123.981 54.0635 123.028 50.612 121.121 47.5728C119.215 44.5336 116.555 42.1659 113.143 40.4696C109.73 38.7733 105.859 37.9252 101.529 37.9252C97.2453 37.9252 93.3974 38.7733 89.9848 40.4696C86.5723 42.1659 83.9011 44.5336 81.9713 47.5728C80.0414 50.612 79.0765 54.0635 79.0765 57.9273C79.0765 61.791 80.0414 65.2425 81.9713 68.2817C83.9011 71.3209 86.5723 73.7004 89.9848 75.4202C93.3974 77.1401 97.2453 78 101.529 78ZM101.529 65.5606C99.6929 65.5606 98.1867 64.8891 97.0099 63.5462C95.8332 62.2033 95.2448 60.3303 95.2448 57.9273C95.2448 55.5242 95.8332 53.663 97.0099 52.3436C98.1867 51.0243 99.6929 50.3646 101.529 50.3646C103.364 50.3646 104.871 51.0243 106.047 52.3436C107.224 53.663 107.812 55.5242 107.812 57.9273C107.812 60.3303 107.224 62.2033 106.047 63.5462C104.871 64.8891 103.364 65.5606 101.529 65.5606ZM145.939 78C150.693 78 154.223 76.7042 156.529 74.1127V77.2932H171.709V24.8496H155.753V41.2471C153.493 39.0325 150.222 37.9252 145.939 37.9252C142.55 37.9252 139.431 38.738 136.584 40.3636C133.736 41.9892 131.476 44.3216 129.806 47.3608C128.135 50.4 127.299 53.9221 127.299 57.9273C127.299 61.9324 128.135 65.4663 129.806 68.529C131.476 71.5918 133.736 73.936 136.584 75.5616C139.431 77.1872 142.55 78 145.939 78ZM149.751 65.5606C147.915 65.5606 146.409 64.8891 145.232 63.5462C144.056 62.2033 143.467 60.3303 143.467 57.9273C143.467 55.5242 144.056 53.663 145.232 52.3436C146.409 51.0243 147.915 50.3646 149.751 50.3646C151.587 50.3646 153.093 51.0243 154.27 52.3436C155.447 53.663 156.035 55.5242 156.035 57.9273C156.035 60.3303 155.447 62.2033 154.27 63.5462C153.093 64.8891 151.587 65.5606 149.751 65.5606ZM200.092 78C207.576 78 213.201 75.9268 216.966 71.7803L208.635 63.3695C207.27 64.4061 206.011 65.1365 204.858 65.5606C203.704 65.9846 202.281 66.1967 200.586 66.1967C198.609 66.1967 196.962 65.8079 195.644 65.0305C194.326 64.253 193.384 63.1339 192.82 61.6732H219.649C219.79 59.4115 219.861 58.1629 219.861 57.9273C219.861 53.7337 218.908 50.129 217.002 47.1134C215.095 44.0978 212.53 41.8125 209.306 40.2576C206.081 38.7027 202.516 37.9252 198.609 37.9252C194.467 37.9252 190.737 38.7733 187.418 40.4696C184.1 42.1659 181.488 44.5336 179.581 47.5728C177.675 50.612 176.722 54.0635 176.722 57.9273C176.722 61.7439 177.687 65.1836 179.617 68.2464C181.547 71.3091 184.277 73.7004 187.807 75.4202C191.337 77.1401 195.432 78 200.092 78ZM204.964 53.9693H192.537C192.867 52.3201 193.573 51.0479 194.655 50.1526C195.738 49.2573 197.103 48.8097 198.75 48.8097C200.398 48.8097 201.763 49.2691 202.845 50.1879C203.928 51.1068 204.634 52.3672 204.964 53.9693ZM268.323 0C285.79 0 300 14.0179 300 31.2482V32.1119C300 40.8259 294.936 50.9807 284.947 62.2935C277.706 70.4942 270.565 76.2129 270.265 76.4523L268.323 78V70.0763C274.586 64.6632 293.819 46.8371 293.819 32.1119V31.2482C293.819 17.3802 282.381 6.0972 268.323 6.0972C255.114 6.0972 244.22 16.0575 242.951 28.764L236.757 34.3389C236.685 33.5868 236.646 32.8437 236.646 32.1119V31.2482C236.646 14.0179 250.856 0 268.323 0ZM238.077 38.632L243.584 46.8307L249.373 38.632H266.107L251.915 57.4325L266.46 77.2932H248.173L242.878 69.0238L236.947 77.2932H219.649L234.264 58.1393L220.073 38.632H238.077ZM259.2 14.8571C260.596 14.8571 261.833 15.0906 262.91 15.5575C263.986 16.0243 264.828 16.6901 265.433 17.5547C266.039 18.4193 266.342 19.4135 266.342 20.5375C266.342 21.5404 266.136 22.4785 265.724 23.3518C265.311 24.225 264.508 25.215 263.313 26.3216L260.79 28.682H266.746V33.4286H252.588V29.6676L258.973 23.5982L259.074 23.4986C259.573 23.0051 259.91 22.5801 260.083 22.2235C260.268 21.843 260.361 21.4713 260.361 21.1081C260.361 20.6586 260.213 20.3084 259.919 20.0577C259.625 19.8069 259.2 19.6816 258.644 19.6816C258.106 19.6816 257.601 19.8286 257.13 20.1225C256.659 20.4165 256.297 20.8315 256.045 21.3675L251.553 19.0591L251.635 18.9047C252.305 17.6806 253.262 16.7075 254.506 15.9854C255.801 15.2332 257.366 14.8571 259.2 14.8571ZM281.409 15.2721L274.746 25.5694H277.143V22.7941H282.746V25.5694H285.093V30.316H282.746V33.4286H276.967V30.316H267.806V26.4254L275.301 15.2721H281.409Z" fill="#31B574"/>
</svg>
